<?xml version="1.0" standalone="no"?>
<!DOCTYPE svg PUBLIC "-//W3C//DTD SVG 20010904//EN"
 "http://www.w3.org/TR/2001/REC-SVG-20010904/DTD/svg10.dtd">
<svg version="1.0" xmlns="http://www.w3.org/2000/svg"
 width="501.000000pt" height="501.000000pt" viewBox="0 0 501.000000 501.000000"
 preserveAspectRatio="xMidYMid meet">
<metadata>
Created by potrace 1.14, written by Peter Selinger 2001-2017
</metadata>
<g transform="translate(0.000000,501.000000) scale(0.100000,-0.100000)"
fill="#000000" stroke="none">
<path d="M716 3367 c-50 -112 -201 -341 -364 -550 -112 -145 -126 -177 -126
-297 1 -74 6 -108 23 -152 62 -159 209 -294 358 -329 51 -12 188 -15 240 -5
47 9 125 44 151 69 21 20 32 21 229 22 l207 0 18 60 c10 33 20 67 22 75 2 8
29 101 60 207 55 187 63 223 50 223 -4 0 -70 -20 -148 -44 -78 -25 -184 -58
-236 -75 l-95 -30 121 0 122 -1 -8 -32 c-4 -18 -18 -72 -31 -120 -22 -80 -26
-88 -49 -89 -213 -7 -267 -5 -301 12 -63 31 -73 58 -71 184 4 166 43 268 135
350 87 79 126 88 400 90 l239 1 22 65 c13 35 26 76 29 91 l7 27 -147 -4 c-82
-3 -211 -7 -288 -10 -162 -5 -217 -17 -305 -67 -149 -85 -265 -242 -306 -415
-20 -86 -25 -273 -8 -331 7 -24 24 -58 38 -77 30 -39 118 -85 169 -88 49 -3
38 -13 -17 -16 -173 -8 -339 88 -414 241 -80 163 -60 278 77 430 89 99 131
159 176 248 l37 74 25 -49 c14 -28 27 -51 28 -53 2 -2 30 23 63 55 60 59 60
59 42 83 -9 14 -31 50 -47 80 -63 115 -105 190 -106 190 -1 0 -10 -20 -21 -43z"/>
<path d="M1846 3108 c-2 -7 -11 -40 -20 -73 -10 -33 -19 -67 -22 -76 -4 -14
29 -15 306 -15 l310 1 -28 -25 c-15 -14 -63 -54 -107 -90 -44 -36 -89 -72
-100 -81 -57 -48 -281 -229 -418 -339 -149 -119 -157 -127 -172 -177 -8 -29
-18 -65 -21 -81 l-6 -29 422 1 421 1 39 88 c38 85 38 87 17 88 -12 0 -141 0
-287 1 l-265 0 30 25 c46 39 66 55 120 98 28 22 52 42 55 46 3 3 39 32 80 65
41 32 91 74 110 91 19 18 38 33 41 33 3 0 17 10 31 23 37 33 118 100 142 116
12 8 23 17 26 20 3 3 32 28 65 55 33 27 63 52 67 56 4 3 13 30 19 60 6 30 14
72 19 93 l7 37 -439 0 c-342 0 -439 -3 -442 -12z"/>
<path d="M2836 3103 c-13 -47 -26 -102 -32 -138 -3 -22 -7 -42 -9 -45 -3 -5
-45 -184 -71 -301 -3 -13 -6 -28 -8 -34 -56 -211 -44 -318 46 -401 51 -48 90
-56 277 -56 202 1 218 3 297 42 75 37 133 91 161 151 11 24 59 179 107 344 48
165 93 318 101 340 7 22 16 57 20 78 l7 37 -110 0 -110 0 -12 -47 c-7 -27 -14
-55 -16 -63 -18 -90 -140 -552 -151 -575 -54 -105 -134 -157 -244 -156 -102 1
-158 40 -173 123 -4 26 6 88 40 223 8 33 16 69 18 80 4 18 32 139 72 315 8 36
18 73 20 83 5 15 -5 17 -110 17 -101 0 -115 -2 -120 -17z"/>
<path d="M3877 3113 c-5 -8 -31 -101 -41 -144 l-5 -25 304 0 c168 1 305 -2
305 -5 0 -3 -127 -108 -282 -234 -156 -126 -285 -232 -288 -235 -3 -3 -56 -46
-118 -95 -122 -98 -109 -79 -157 -235 -5 -14 41 -16 419 -16 l424 -1 40 89 40
88 -46 1 c-26 0 -156 1 -290 0 l-243 0 48 39 c26 21 91 74 144 117 206 169
359 292 459 373 135 109 126 99 135 145 5 22 9 45 11 50 1 6 5 29 9 53 l8 42
-436 0 c-240 0 -438 -3 -440 -7z"/>
<path d="M798 1841 c-19 -74 -22 -101 -13 -105 17 -6 88 2 119 13 25 10 64 73
61 101 -1 8 -3 23 -3 32 -3 25 -47 51 -96 55 l-43 4 -25 -100z m112 61 c37
-30 26 -108 -18 -131 -26 -14 -82 -21 -82 -10 0 6 7 40 17 77 21 86 39 100 83
64z"/>
<path d="M1249 1896 c-6 -23 -13 -52 -16 -66 -2 -14 -8 -40 -13 -57 -4 -18 -5
-34 -2 -34 20 -4 109 -5 120 -1 29 10 8 21 -33 18 -53 -3 -57 1 -49 43 6 29 9
31 50 31 29 0 44 4 44 13 0 8 -14 11 -41 10 -39 -1 -40 0 -34 25 9 36 9 36 58
38 55 2 57 2 57 13 0 5 -29 8 -65 8 l-65 -1 -11 -40z"/>
<path d="M1666 1924 c-9 -8 -14 -19 -11 -24 3 -5 -1 -28 -9 -52 -8 -24 -17
-59 -20 -78 l-6 -35 62 0 c39 0 63 5 66 13 2 8 -9 11 -37 10 -23 -1 -44 2 -48
5 -3 4 -1 31 6 60 17 68 24 117 18 117 -3 0 -13 -7 -21 -16z"/>
<path d="M2059 1938 c0 -2 -2 -10 -4 -18 -1 -8 -12 -51 -24 -95 -11 -44 -16
-84 -12 -88 8 -8 23 7 28 28 7 32 13 56 26 107 8 31 12 59 9 62 -5 6 -21 8
-23 4z"/>
<path d="M2344 1912 c3 -15 8 -58 11 -97 7 -68 16 -88 39 -79 12 5 128 195
122 201 -11 11 -37 -17 -76 -86 -25 -44 -47 -78 -50 -76 -3 2 -7 25 -8 52 -6
101 -8 106 -26 109 -14 2 -16 -3 -12 -24z"/>
<path d="M2771 1902 c-37 -142 -40 -157 -30 -163 17 -10 123 -3 126 8 3 8 -13
10 -47 9 l-51 -3 5 36 c3 20 5 37 6 39 0 1 21 2 46 2 32 0 44 4 42 12 -3 8
-20 12 -42 11 -34 -1 -37 1 -32 20 3 12 6 27 6 32 0 6 21 11 48 10 70 0 63 20
-8 22 l-60 2 -9 -37z"/>
<path d="M3180 1914 c-6 -14 -12 -39 -15 -57 -3 -18 -10 -48 -15 -67 -14 -49
-12 -60 5 -54 8 4 15 12 15 20 0 26 24 64 41 64 10 0 23 -15 32 -39 9 -22 21
-42 27 -46 21 -13 24 5 6 42 -17 35 -17 38 0 50 10 7 21 13 25 13 4 0 11 13
17 28 15 44 -6 64 -73 68 -52 3 -57 1 -65 -22z m101 -3 c4 0 9 -10 12 -21 7
-26 -27 -50 -71 -50 -30 0 -33 2 -27 23 4 12 9 29 11 38 4 13 38 18 75 10z"/>
<path d="M3605 1921 c-2 -9 -11 -45 -18 -81 -8 -36 -16 -69 -17 -75 -4 -18 0
-35 9 -35 10 0 17 23 40 125 7 28 14 57 17 66 2 9 -2 16 -11 16 -8 0 -17 -7
-20 -16z"/>
<path d="M3932 1931 c-6 -3 -13 -19 -16 -34 -3 -15 -8 -39 -11 -54 -3 -16 -10
-43 -15 -62 -5 -19 -7 -37 -5 -41 2 -3 30 -5 62 -4 74 2 75 2 69 12 -3 5 -26
9 -51 9 -25 1 -47 2 -49 4 -2 2 1 19 6 37 8 30 11 32 53 32 25 0 45 5 45 10 0
9 -36 15 -68 11 -8 -1 -12 7 -10 21 6 38 16 45 62 43 28 -1 47 3 50 10 5 13
-101 19 -122 6z"/>
<path d="M4344 1925 c-46 -31 -34 -63 39 -108 15 -10 27 -21 27 -25 -1 -32
-57 -48 -90 -25 -16 11 -25 12 -33 4 -8 -8 0 -15 26 -26 51 -21 74 -19 102 10
39 38 32 63 -26 94 -43 23 -50 56 -14 65 14 4 35 2 46 -5 24 -13 36 -5 21 14
-16 18 -73 20 -98 2z"/>
</g>
</svg>
